# xmcd
#
# Track frame offsets:
#	150
#	12030
#	25190
#	38015
#	49405
#	64745
#	78917
#	92035
#	105072
#	118740
#	132867
#	146345
#	160842
#	175685
#	190280
#	207075
#
# Disc length: 2930
#
# Revision: 1
# Processed by: cddbd v1.5.1PL0 Copyright (c) Steve Scherf et al.
# Submitted via: ExactAudioCopy v0.90b4
# Normalized: r0:DSETVAR1,TDELIM( - )
#
DISCID=c40b7010
DTITLE=Various Artist - Slide Guitar: The Streamline Special
DYEAR=1998
DGENRE=Blues
TTITLE0=Taj Mahal - Country Blues
TTITLE1=Leadbelly - Packin' Trunk Blues
TTITLE2=Robert Johnson - Preachin' Blues
TTITLE3=Buddy Woods, Kitty Gray - Don't Sell It (Don't Give It Away)
TTITLE4=Casey Bill Weldon - Two Timin' Woman
TTITLE5=Blind Boy Fuller - Homesick and Lonesome Blues
TTITLE6=Bukka White - Special Streamline
TTITLE7=Sylvester Weaver - Bottleneck Blues
TTITLE8=Allen Shaw - Moanin' the Blues
TTITLE9=Charley Patton - High Sheriff Blues
TTITLE10=Georgia Cotton Pickers - Diddle_Da_Diddle
TTITLE11=Blind Willie McTell - Travelin' Blues
TTITLE12=Tampa Red and Georgia Tom - No Matter How She Done It
TTITLE13=Buddy Moss, Curley Weaver - Hard Times
TTITLE14=Muddy Waters - I Feel Like Going Home
TTITLE15=JoAnn Kelly - Come On In My Kitchen
EXTD=
EXTT0=
EXTT1=
EXTT2=
EXTT3=
EXTT4=
EXTT5=
EXTT6=
EXTT7=
EXTT8=
EXTT9=
EXTT10=
EXTT11=
EXTT12=
EXTT13=
EXTT14=
EXTT15=
PLAYORDER=
